<svg width="34" height="12" viewBox="0 0 34 12" fill="none" xmlns="http://www.w3.org/2000/svg">
<path d="M6.22905 5.07386L5.17507 5.37216C5.10878 5.1965 5.01101 5.0258 4.88175 4.86009C4.7558 4.69105 4.58345 4.55185 4.3647 4.44247C4.14595 4.3331 3.86589 4.27841 3.5245 4.27841C3.05717 4.27841 2.66773 4.38613 2.35618 4.60156C2.04794 4.81368 1.89382 5.08381 1.89382 5.41193C1.89382 5.7036 1.99988 5.93395 2.212 6.10298C2.42412 6.27202 2.75556 6.41288 3.20632 6.52557L4.33984 6.80398C5.02261 6.9697 5.53137 7.22325 5.86612 7.56463C6.20088 7.9027 6.36825 8.33854 6.36825 8.87216C6.36825 9.30966 6.24231 9.70076 5.99041 10.0455C5.74183 10.3902 5.39382 10.6619 4.94638 10.8608C4.49893 11.0597 3.97857 11.1591 3.3853 11.1591C2.60642 11.1591 1.96177 10.9901 1.45135 10.652C0.940933 10.3139 0.617779 9.82008 0.481889 9.17045L1.59553 8.89205C1.70159 9.30303 1.90211 9.61127 2.19709 9.81676C2.49538 10.0223 2.88482 10.125 3.36541 10.125C3.91229 10.125 4.34647 10.009 4.66797 9.77699C4.99278 9.54167 5.15518 9.25994 5.15518 8.93182C5.15518 8.66667 5.06238 8.4446 4.87678 8.26562C4.69117 8.08333 4.40613 7.94744 4.02166 7.85795L2.74893 7.55966C2.0496 7.39394 1.53587 7.13707 1.20774 6.78906C0.882931 6.43774 0.720526 5.99858 0.720526 5.47159C0.720526 5.04072 0.841501 4.65956 1.08345 4.32812C1.32872 3.99669 1.66181 3.73651 2.08274 3.54758C2.50698 3.35866 2.98757 3.2642 3.5245 3.2642C4.28018 3.2642 4.87346 3.42992 5.30433 3.76136C5.73852 4.0928 6.04676 4.5303 6.22905 5.07386ZM10.3816 11.179C9.89767 11.179 9.45851 11.0878 9.0641 10.9055C8.66969 10.7199 8.35647 10.4531 8.12447 10.1051C7.89246 9.75379 7.77646 9.32955 7.77646 8.83239C7.77646 8.39489 7.86263 8.04025 8.03498 7.76847C8.20733 7.49337 8.43768 7.27794 8.72603 7.12216C9.01438 6.96638 9.33256 6.85038 9.68058 6.77415C10.0319 6.6946 10.3849 6.63163 10.7395 6.58523C11.2035 6.52557 11.5797 6.48082 11.8681 6.45099C12.1597 6.41785 12.3719 6.36316 12.5044 6.28693C12.6403 6.2107 12.7083 6.07812 12.7083 5.8892V5.84943C12.7083 5.3589 12.574 4.97775 12.3056 4.70597C12.0404 4.43419 11.6377 4.2983 11.0975 4.2983C10.5373 4.2983 10.0982 4.42093 9.78001 4.66619C9.46183 4.91146 9.2381 5.1733 9.10884 5.4517L7.99521 5.05398C8.19407 4.58996 8.45922 4.22869 8.79066 3.97017C9.12541 3.70833 9.49 3.52604 9.88441 3.4233C10.2821 3.31723 10.6732 3.2642 11.0577 3.2642C11.303 3.2642 11.5847 3.29403 11.9029 3.35369C12.2244 3.41004 12.5343 3.5277 12.8326 3.70668C13.1342 3.88565 13.3844 4.15578 13.5833 4.51705C13.7821 4.87831 13.8816 5.36222 13.8816 5.96875V11H12.7083V9.96591H12.6486C12.5691 10.1316 12.4365 10.3089 12.2509 10.4979C12.0653 10.6868 11.8184 10.8475 11.5101 10.9801C11.2019 11.1127 10.8257 11.179 10.3816 11.179ZM10.5605 10.125C11.0246 10.125 11.4157 10.0339 11.7338 9.85156C12.0553 9.66927 12.2973 9.43395 12.4597 9.1456C12.6254 8.85724 12.7083 8.55398 12.7083 8.2358V7.16193C12.6586 7.22159 12.5492 7.27628 12.3801 7.32599C12.2144 7.3724 12.0222 7.41383 11.8034 7.45028C11.588 7.48343 11.3775 7.51326 11.1721 7.53977C10.9699 7.56297 10.8058 7.58286 10.6799 7.59943C10.3749 7.6392 10.0899 7.70384 9.82475 7.79332C9.56291 7.8795 9.35079 8.01042 9.18839 8.18608C9.0293 8.35843 8.94975 8.59375 8.94975 8.89205C8.94975 9.29972 9.10056 9.60795 9.40217 9.81676C9.70709 10.0223 10.0932 10.125 10.5605 10.125ZM17.1964 0.818182V11H16.0231V0.818182H17.1964ZM22.5471 11.1591C21.8113 11.1591 21.1766 10.9967 20.6429 10.6719C20.1126 10.3438 19.7033 9.88636 19.415 9.29972C19.1299 8.70975 18.9874 8.02367 18.9874 7.24148C18.9874 6.45928 19.1299 5.76989 19.415 5.1733C19.7033 4.57339 20.1043 4.10606 20.6181 3.77131C21.1351 3.43324 21.7383 3.2642 22.4277 3.2642C22.8255 3.2642 23.2182 3.33049 23.606 3.46307C23.9938 3.59564 24.3468 3.81108 24.665 4.10938C24.9831 4.40436 25.2367 4.79545 25.4256 5.28267C25.6145 5.76989 25.709 6.36979 25.709 7.08239V7.57955H19.8226V6.56534H24.5158C24.5158 6.13447 24.4296 5.75 24.2573 5.41193C24.0882 5.07386 23.8463 4.80705 23.5314 4.61151C23.2199 4.41596 22.852 4.31818 22.4277 4.31818C21.9604 4.31818 21.556 4.43419 21.2147 4.66619C20.8766 4.89489 20.6164 5.19318 20.4341 5.56108C20.2518 5.92898 20.1607 6.32339 20.1607 6.74432V7.42045C20.1607 7.99716 20.2601 8.48603 20.459 8.88707C20.6612 9.2848 20.9412 9.58807 21.2992 9.79688C21.6571 10.0024 22.0731 10.1051 22.5471 10.1051C22.8553 10.1051 23.1337 10.062 23.3823 9.97585C23.6342 9.88636 23.8513 9.75379 24.0336 9.57812C24.2159 9.39915 24.3567 9.17708 24.4561 8.91193L25.5897 9.23011C25.4703 9.61458 25.2698 9.95265 24.9881 10.2443C24.7064 10.5327 24.3584 10.758 23.9441 10.9205C23.5298 11.0795 23.0641 11.1591 22.5471 11.1591ZM32.9824 0.818182L32.883 8.13636H31.7296L31.6301 0.818182H32.9824ZM32.3063 11.0795C32.061 11.0795 31.8506 10.9917 31.6749 10.8161C31.4992 10.6404 31.4114 10.4299 31.4114 10.1847C31.4114 9.93939 31.4992 9.72893 31.6749 9.55327C31.8506 9.3776 32.061 9.28977 32.3063 9.28977C32.5516 9.28977 32.762 9.3776 32.9377 9.55327C33.1133 9.72893 33.2012 9.93939 33.2012 10.1847C33.2012 10.3471 33.1597 10.4962 33.0769 10.6321C32.9973 10.768 32.8896 10.8774 32.7537 10.9602C32.6212 11.0398 32.472 11.0795 32.3063 11.0795Z" fill="black"/>
</svg>
